<svg xmlns="http://www.w3.org/2000/svg" fill="none" viewBox="0 0 100 100" height="100" width="100"><path fill="#007fff" fill-rule="evenodd" d="M46.00833333333333 2.0833333333333335h-18.75c-2.5833333333333335 0 -5.166666666666667 1.55 -6.2041666666666675 3.6166666666666667L9.9375 21.8c0.35833333333333334 -0.02916666666666667 0.7166666666666667 -0.04166666666666667 1.0833333333333335 -0.04166666666666667h34.987500000000004V2.0833333333333335Zm33.454166666666666 3.6166666666666667 10.741666666666667 16.1125a13.204166666666667 13.204166666666667 0 0 0 -1.2208333333333334 -0.05416666666666667h-34.987500000000004V2.0833333333333335h19.262500000000003c2.5833333333333335 0 4.654166666666667 1.55 6.2041666666666675 3.6166666666666667ZM3.2208333333333337 90.11666666666667c0 4.1625000000000005 3.6375 7.800000000000001 7.795833333333334 7.800000000000001h77.96666666666667c4.158333333333333 0 7.795833333333334 -3.6375 7.795833333333334 -7.795833333333334V35.541666666666664c0 -4.158333333333333 -3.6375 -7.800000000000001 -7.795833333333334 -7.800000000000001H11.016666666666667c-4.158333333333333 0 -7.795833333333334 3.641666666666667 -7.795833333333334 7.800000000000001v54.57500000000001Zm36.79166666666667 -32.725v19.245833333333334a3.9958333333333336 3.9958333333333336 0 1 1 -7.983333333333333 0v-25.5625c0 -5.833333333333333 7.279166666666668 -8.262500000000001 10.783333333333335 -3.5958333333333337a3.4 3.4 0 0 1 0.07083333333333335 0.1L50 57.708333333333336l7.116666666666667 -10.125000000000002a3.4 3.4 0 0 1 0.075 -0.10416666666666669c3.5 -4.666666666666668 10.783333333333335 -2.2375000000000003 10.783333333333335 3.5958333333333337v25.5625a3.9958333333333336 3.9958333333333336 0 1 1 -7.991666666666667 0v-19.245833333333334l-6.716666666666668 9.558333333333334a3.9958333333333336 3.9958333333333336 0 0 1 -6.533333333333334 0l-6.716666666666668 -9.558333333333334Z" clip-rule="evenodd" stroke-width="4.166666666666667"></path></svg>